<svg width="64" height="51" viewBox="0 0 64 51" fill="none" xmlns="http://www.w3.org/2000/svg">
<path d="M53.9821 0C48.7315 0 44.4548 4.2925 44.4548 9.5625C44.4548 14.8325 48.7315 19.125 53.9821 19.125C59.2327 19.125 63.5094 14.8325 63.5094 9.5625C63.5094 4.2925 59.2327 0 53.9821 0ZM53.9821 2.125C58.0894 2.125 61.3923 5.44 61.3923 9.5625C61.3923 13.685 58.0894 17 53.9821 17C49.8748 17 46.572 13.685 46.572 9.5625C46.572 5.44 49.8748 2.125 53.9821 2.125ZM53.9821 4.25C53.3956 4.25 52.9235 4.72388 52.9235 5.3125V8.5H49.7477C49.1613 8.5 48.6891 8.97388 48.6891 9.5625C48.6891 10.1511 49.1613 10.625 49.7477 10.625H52.9235V13.8125C52.9235 14.4011 53.3956 14.875 53.9821 14.875C54.5686 14.875 55.0407 14.4011 55.0407 13.8125V10.625H58.2165C58.8029 10.625 59.2751 10.1511 59.2751 9.5625C59.2751 8.97388 58.8029 8.5 58.2165 8.5H55.0407V5.3125C55.0407 4.72388 54.5686 4.25 53.9821 4.25ZM22.2244 27.625H49.7477C50.3342 27.625 50.8063 28.0989 50.8063 28.6875C50.8063 29.2761 50.3342 29.75 49.7477 29.75H22.2244C21.6379 29.75 21.1658 29.2761 21.1658 28.6875C21.1658 28.0989 21.6379 27.625 22.2244 27.625ZM20.1072 19.125H45.5134C46.0998 19.125 46.572 19.5989 46.572 20.1875C46.572 20.7761 46.0998 21.25 45.5134 21.25H20.1072C19.5207 21.25 19.0486 20.7761 19.0486 20.1875C19.0486 19.5989 19.5207 19.125 20.1072 19.125ZM45.5134 40.375C42.6022 40.375 40.2204 42.7656 40.2204 45.6875C40.2204 48.6094 42.6022 51 45.5134 51C48.4245 51 50.8063 48.6094 50.8063 45.6875C50.8063 42.7656 48.4245 40.375 45.5134 40.375ZM45.5134 42.5C47.2791 42.5 48.6891 43.9152 48.6891 45.6875C48.6891 47.4597 47.2791 48.875 45.5134 48.875C43.7476 48.875 42.3376 47.4597 42.3376 45.6875C42.3376 43.9152 43.7476 42.5 45.5134 42.5ZM24.3415 40.375C21.4304 40.375 19.0486 42.7656 19.0486 45.6875C19.0486 48.6094 21.4304 51 24.3415 51C27.2527 51 29.6345 48.6094 29.6345 45.6875C29.6345 42.7656 27.2527 40.375 24.3415 40.375ZM24.3415 42.5C26.1073 42.5 27.5173 43.9152 27.5173 45.6875C27.5173 47.4597 26.1073 48.875 24.3415 48.875C22.5758 48.875 21.1658 47.4597 21.1658 45.6875C21.1658 43.9152 22.5758 42.5 24.3415 42.5ZM1.06945 2.125C-0.349063 2.125 -0.363884 4.25 1.06945 4.25H8.67437C8.83105 5.00437 10.0294 10.7419 11.4564 17.4888C12.2143 21.0715 12.9892 24.7265 13.6116 27.6165C14.232 30.5065 14.6808 32.5614 14.8566 33.2116C15.136 34.2614 15.3986 35.4535 16.1692 36.4926C16.9356 37.5296 18.2864 38.2479 20.1072 38.2479H49.7308C51.5516 38.2479 52.9023 37.5296 53.673 36.4926C54.4415 35.4514 54.702 34.2614 54.9857 33.2095C55.1698 32.504 55.4599 30.8656 55.8537 28.8107C56.2411 26.7495 56.7006 24.3631 57.124 22.5484C57.4733 21.2458 55.3117 20.6784 55.0661 22.0681C54.63 23.9466 54.1621 26.3436 53.7704 28.4091C53.3787 30.4767 53.0357 32.3021 52.9405 32.6591C52.6525 33.7344 52.3836 34.6672 51.9729 35.2219C51.5622 35.7786 51.0837 36.1229 49.7329 36.1229H20.1072C18.7564 36.1229 18.2779 35.7786 17.863 35.2219C17.4543 34.6694 17.1855 33.7344 16.8975 32.6613C16.7917 32.2511 16.3047 30.0539 15.6823 27.1681C15.0619 24.2824 14.2849 20.6316 13.5291 17.0446C12.0132 9.877 10.565 2.96862 10.565 2.96862C10.4634 2.47987 10.0315 2.12713 9.5276 2.12713L1.06945 2.125ZM17.9942 10.625C16.5863 10.625 16.6032 12.75 17.9942 12.75H39.1491C40.5719 12.75 40.5401 10.625 39.1491 10.625H17.9942Z" fill="#F5F5F5"/>
</svg>
