<svg width="46" height="46" viewBox="0 0 46 46" fill="none" xmlns="http://www.w3.org/2000/svg">
<path fill-rule="evenodd" clip-rule="evenodd" d="M7.66667 34.5H38.3333C39.3875 34.5 40.25 33.6375 40.25 32.5833C40.25 31.5292 39.3875 30.6667 38.3333 30.6667H7.66667C6.6125 30.6667 5.75 31.5292 5.75 32.5833C5.75 33.6375 6.6125 34.5 7.66667 34.5ZM7.66667 24.9167H38.3333C39.3875 24.9167 40.25 24.0542 40.25 23C40.25 21.9458 39.3875 21.0833 38.3333 21.0833H7.66667C6.6125 21.0833 5.75 21.9458 5.75 23C5.75 24.0542 6.6125 24.9167 7.66667 24.9167ZM5.75 13.4167C5.75 14.4708 6.6125 15.3333 7.66667 15.3333H38.3333C39.3875 15.3333 40.25 14.4708 40.25 13.4167C40.25 12.3625 39.3875 11.5 38.3333 11.5H7.66667C6.6125 11.5 5.75 12.3625 5.75 13.4167Z" fill="#F5F5F5"/>
</svg>
