<svg width="46" height="46" viewBox="0 0 46 46" fill="none" xmlns="http://www.w3.org/2000/svg">
<path d="M21.2952 0.953798C22.3351 0.953798 23.3516 1.26215 24.2162 1.83986C25.0808 2.41756 25.7547 3.23868 26.1526 4.19937C26.5505 5.16007 26.6546 6.21719 26.4518 7.23705C26.2489 8.25692 25.7482 9.19372 25.0129 9.92901C24.2776 10.6643 23.3408 11.165 22.3209 11.3679C21.3011 11.5708 20.244 11.4666 19.2833 11.0687C18.3226 10.6708 17.5015 9.9969 16.9237 9.13229C16.346 8.26769 16.0377 7.2512 16.0377 6.21135C16.0372 5.52078 16.1728 4.83688 16.4369 4.19877C16.7009 3.56067 17.0882 2.98088 17.5765 2.49257C18.0648 2.00426 18.6446 1.61701 19.2827 1.35297C19.9208 1.08894 20.6047 0.953291 21.2952 0.953798Z" fill="#F5F5F5"/>
<path d="M17.8527 16.1816C17.1297 16.3099 16.4749 16.6887 16.0032 17.2515C15.5315 17.8143 15.273 18.5252 15.2731 19.2596C15.273 19.67 15.3538 20.0765 15.5108 20.4557C15.6679 20.835 15.8981 21.1796 16.1883 21.4698C16.4785 21.76 16.8231 21.9902 17.2024 22.1473C17.5816 22.3043 17.9881 22.3851 18.3985 22.385H18.7083V39.6975H17.0363C16.327 39.6975 15.6468 39.9793 15.1452 40.4808C14.6437 40.9824 14.3619 41.6626 14.3619 42.3719C14.3619 43.0811 14.6437 43.7614 15.1452 44.2629C15.6468 44.7644 16.327 45.0462 17.0363 45.0462H28.9637C29.673 45.0462 30.3532 44.7644 30.8548 44.2629C31.3563 43.7614 31.6381 43.0811 31.6381 42.3719C31.6381 41.6626 31.3563 40.9824 30.8548 40.4808C30.3532 39.9793 29.673 39.6975 28.9637 39.6975H27.3099V17.5974C27.3099 17.1985 27.2215 16.8047 27.0511 16.4441C26.8806 16.0835 26.6324 15.7652 26.3242 15.512C26.016 15.2589 25.6556 15.0772 25.2688 14.98C24.8819 14.8829 24.4784 14.8726 24.0872 14.9501C21.3888 15.4843 17.9597 16.1628 17.8527 16.1816Z" fill="#F5F5F5"/>
</svg>
